<svg width="52" height="48" fill="none" xmlns="http://www.w3.org/2000/svg"><path d="M6.217 42.725C2.093 39.082 0 32.802 0 23.78 0 14.863 2.093 8.666 6.217 5.212 10.425 1.758 16.977 0 25.811 0c9 0 15.553 1.758 19.656 5.212 4.208 3.454 6.3 9.63 6.3 18.568 0 9.022-2.093 15.302-6.3 18.924C41.343 46.24 34.79 48 25.81 48c-8.918.02-15.47-1.759-19.594-5.275z" fill="#E51E3A"/><path d="M28.26 32.718c-3.245.922-6.887 1.382-10.864 1.382-3.747 0-6.239-.398-7.557-1.256-1.277-.858-1.905-2.554-1.905-5.045 0-2.637.712-4.27 2.26-5.128 1.591-.859 3.287-1.068 6.113-1.068 1.068 0 2.868.146 5.4.44-.146-2.282-.397-2.575-5.295-2.7-2.261 0-4.564.25-6.887.774l-.88-5.338c2.89-.565 6.218-.858 9.923-.858 6.782 0 9.713 1.967 9.713 7.43v11.367h-.021zm-6.552-6.489a36.325 36.325 0 00-3.496-.188c-1.298 0-2.156.104-2.533.293-.356.188-.523.586-.523 1.256 0 1.34.397 1.59 2.93 1.59 1.089 0 2.303-.146 3.643-.418V26.23h-.021zm9.734 3.643l6.72-5.778-6.72-5.882 2.889-4.187 11.283 8.646v2.742l-11.241 8.603-2.931-4.144z" fill="#fff"/></svg>